<svg xmlns="http://www.w3.org/2000/svg" width="32" height="32" viewBox="0 0 32 32"><defs><style>.a{fill:#3fbb6a;}.b{fill:#fff;}</style></defs><g transform="translate(-277 -699)"><circle class="a" cx="16" cy="16" r="16" transform="translate(277 699)"/><g transform="translate(286 709)"><g transform="translate(0.53 0)"><path class="b" d="M30.846,68.267H17.067l6.889,5.675,6.967-5.659A.479.479,0,0,0,30.846,68.267Z" transform="translate(-17.067 -68.267)"/></g><g transform="translate(0 0.936)"><path class="b" d="M7.754,104.241a.53.53,0,0,1-.671,0L0,98.406v9.133a.53.53,0,0,0,.53.53H14.309a.53.53,0,0,0,.53-.53V98.484Z" transform="translate(0 -98.406)"/></g></g></g></svg>